<?xml version="1.0" encoding="utf-8"?>
<!-- Generator: Adobe Illustrator 21.0.2, SVG Export Plug-In . SVG Version: 6.00 Build 0)  -->
<svg version="1.1" id="Layer_1" xmlns="http://www.w3.org/2000/svg" xmlns:xlink="http://www.w3.org/1999/xlink" x="0px" y="0px"
	 viewBox="0 0 88 37" style="enable-background:new 0 0 88 37;" xml:space="preserve">
<style type="text/css">
	.st0{fill:#FF6600;}
</style>
<title>main_logo</title>
<desc>Created with Sketch.</desc>
<g id="Symbols">
	<g id="new-home-page" transform="translate(-946.000000, -275.000000)">
		<path id="main_logo" class="st0" d="M990.6,275h43.2v36.6h-43.2v-16.1v0v0l3.4-4v0l0,1.2v4.8h1.8v-8.3h-1.8l-3.3,4v0v0V275z
			 M988.7,295.5v16H946V275h42.7v18v0v0l-3.3-4h-1.8v8.3h1.8v-4.8l0-1.3l0,0L988.7,295.5L988.7,295.5z M966.8,297.4L966.8,297.4h2.1
			l-4.8-8.3H962l-4.8,8.3h2l2-3.6l1.8-3.2v0l1.6,2.9h-0.2h-1.1l-0.9,1.6h2.5h0.4h0h0.1L966.8,297.4z M978.5,297.4l2.7,0l-3.7-3.1
			h0.1c1.5,0,3.2-0.5,3.2-2.6c0-1.2-0.5-2.7-3.2-2.7H971v8.3h1.8v-6.7h5c0.9,0,1.4,0.3,1.4,1s-0.5,1-1.4,1H975v1.6L978.5,297.4z
			 M1020,297.4l2.7,0l-3.7-3.1h0.1c1.5,0,3.2-0.5,3.2-2.6c0-1.2-0.5-2.7-3.2-2.7h-6.6v8.3h1.8v-6.7h5c0.9,0,1.4,0.3,1.4,1
			s-0.5,1-1.4,1h-2.7v1.6L1020,297.4z M1008.3,296.4c0.9-0.8,1.4-1.9,1.4-3.1s-0.5-2.3-1.4-3.1c-1-0.8-2.4-1.2-4.2-1.2
			c-1.8,0-3.2,0.4-4.2,1.2c-1,0.8-1.4,1.9-1.4,3.1s0.5,2.3,1.4,3.1c1,0.8,2.4,1.2,4.2,1.2C1005.9,297.6,1007.3,297.2,1008.3,296.4z
			 M1004.1,290.6c2.4,0,3.8,1,3.8,2.7c0,1.7-1.4,2.7-3.8,2.7c-2.4,0-3.8-1-3.8-2.7C1000.3,291.6,1001.7,290.6,1004.1,290.6z"/>
	</g>
</g>
</svg>
